<?xml version="1.0" encoding="UTF-8"?>
<svg xmlns="http://www.w3.org/2000/svg" xmlns:xlink="http://www.w3.org/1999/xlink" width="30pt" height="25pt" viewBox="0 0 41 34" version="1.1">
<g id="surface1">
<path style=" stroke:none;fill-rule:evenodd;fill:rgb(0%,0%,0%);fill-opacity:1;" d="M 29.773438 24.632812 L 34.695312 24.632812 L 34.695312 12.152344 L 29.148438 6.296875 L 25.667969 9.972656 L 29.773438 14.304688 Z M 34.707031 27.238281 L 17.535156 27.238281 L 13.429688 22.90625 L 15.171875 21.066406 L 18.5625 24.644531 L 25.539062 24.644531 L 18.664062 17.378906 L 20.417969 15.527344 L 27.292969 22.78125 L 27.292969 15.417969 L 23.914062 11.851562 L 25.640625 10.027344 L 17.105469 0.976562 L -0.0390625 0.976562 L 4.871094 6.160156 L 4.871094 6.175781 L 15.054688 6.175781 L 18.652344 9.972656 L 13.390625 15.527344 L 9.792969 11.726562 L 9.792969 8.78125 L 4.871094 8.78125 L 4.871094 13.882812 L 13.390625 22.878906 L 9.921875 26.539062 L 15.46875 32.394531 L 39.617188 32.394531 Z M 34.707031 27.238281 "/>
</g>
</svg>
